<svg width="900" height="380" viewBox="0 0 900 380" fill="none" xmlns="http://www.w3.org/2000/svg">
  <defs>
    <linearGradient id="rxPrimary" x1="0%" y1="0%" x2="100%" y2="100%">
      <stop offset="0%" stop-color="#22d3ee" />
      <stop offset="50%" stop-color="#6366f1" />
      <stop offset="100%" stop-color="#a21caf" />
    </linearGradient>
    <linearGradient id="receiptGradient" x1="0%" y1="0%" x2="100%" y2="100%">
      <stop offset="0%" stop-color="#22d3ee" stop-opacity="0.18" />
      <stop offset="50%" stop-color="#6366f1" stop-opacity="0.13" />
      <stop offset="100%" stop-color="#a21caf" stop-opacity="0.18" />
    </linearGradient>
  </defs>
  <rect width="900" height="380" fill="#f8fafc" />
  <g stroke="#e5e7eb" stroke-width="1" opacity="0.25">
    <line x1="0" y1="60" x2="900" y2="60" />
    <line x1="0" y1="120" x2="900" y2="120" />
    <line x1="0" y1="180" x2="900" y2="180" />
    <line x1="0" y1="240" x2="900" y2="240" />
    <line x1="0" y1="300" x2="900" y2="300" />
  </g>
  <g transform="translate(350 30)">
    <circle cx="100" cy="80" r="60" fill="#fff" stroke="#d1d5db" stroke-width="2" />
    <rect x="60" y="60" width="80" height="40" rx="20" fill="#fff" stroke="#d1d5db" stroke-width="2" />
    <rect x="75" y="75" width="50" height="20" rx="10" fill="#f3f4f6" stroke="#d1d5db" stroke-width="1" />
    <circle cx="90" cy="90" r="6" fill="#d1d5db" />
    <circle cx="110" cy="90" r="6" fill="#d1d5db" />
    <path d="M92 100 Q100 110 108 100" stroke="#d1d5db" stroke-width="2" fill="none" stroke-linecap="round" />
    <rect x="85" y="115" width="30" height="20" rx="10" fill="#fff" stroke="#d1d5db" stroke-width="2" />
    <rect x="75" y="115" width="50" height="8" rx="4" fill="#fff" stroke="#d1d5db" stroke-width="2" transform="rotate(25 100 119)" />
    <rect x="75" y="115" width="50" height="8" rx="4" fill="#fff" stroke="#d1d5db" stroke-width="2" transform="rotate(-25 100 119)" />
    <rect x="90" y="135" width="8" height="20" rx="4" fill="#fff" stroke="#d1d5db" stroke-width="1" />
    <rect x="102" y="135" width="8" height="20" rx="4" fill="#fff" stroke="#d1d5db" stroke-width="1" />
    <text x="100" y="190" font-family="monospace" font-weight="bold" font-size="38" text-anchor="middle" letter-spacing="2" fill="url(#rxPrimary)">X</text>
    <line x1="60" y1="205" x2="140" y2="205" stroke="#bbb" stroke-width="1.5" stroke-dasharray="4 6" opacity="0.3" />
  </g>
</svg>
